<?xml version="1.0" encoding="UTF-8"?>
<!--Generator: Apple Native CoreSVG 175.5-->
<!DOCTYPE svg
PUBLIC "-//W3C//DTD SVG 1.1//EN"
       "http://www.w3.org/Graphics/SVG/1.1/DTD/svg11.dtd">
<svg version="1.1" xmlns="http://www.w3.org/2000/svg" xmlns:xlink="http://www.w3.org/1999/xlink" width="19.9219" height="19.9316">
 <g>
  <rect height="19.9316" opacity="0" width="19.9219" x="0" y="0"/>
  <path d="M9.96094 19.9219Q12.002 19.9219 13.8037 19.1406Q15.6055 18.3594 16.9824 16.9824Q18.3594 15.6055 19.1406 13.8037Q19.9219 12.002 19.9219 9.96094Q19.9219 7.91992 19.1406 6.11816Q18.3594 4.31641 16.9824 2.93945Q15.6055 1.5625 13.7988 0.78125Q11.9922 0 9.95117 0Q7.91016 0 6.1084 0.78125Q4.30664 1.5625 2.93457 2.93945Q1.5625 4.31641 0.78125 6.11816Q0 7.91992 0 9.96094Q0 12.002 0.78125 13.8037Q1.5625 15.6055 2.93945 16.9824Q4.31641 18.3594 6.11816 19.1406Q7.91992 19.9219 9.96094 19.9219ZM9.96094 18.2617Q8.23242 18.2617 6.72852 17.6172Q5.22461 16.9727 4.08691 15.835Q2.94922 14.6973 2.30957 13.1934Q1.66992 11.6895 1.66992 9.96094Q1.66992 8.23242 2.30957 6.72852Q2.94922 5.22461 4.08203 4.08203Q5.21484 2.93945 6.71875 2.2998Q8.22266 1.66016 9.95117 1.66016Q11.6797 1.66016 13.1885 2.2998Q14.6973 2.93945 15.835 4.08203Q16.9727 5.22461 17.6172 6.72852Q18.2617 8.23242 18.2617 9.96094Q18.2617 11.6895 17.6221 13.1934Q16.9824 14.6973 15.8398 15.835Q14.6973 16.9727 13.1934 17.6172Q11.6895 18.2617 9.96094 18.2617Z" fill="#000000"/>
  <path d="M6.62109 14.0918Q6.96289 14.0918 7.1875 13.8477L9.95117 11.0742L12.7344 13.8477Q12.9688 14.0918 13.291 14.0918Q13.6133 14.0918 13.8428 13.8574Q14.0723 13.623 14.0723 13.3008Q14.0723 12.9785 13.8379 12.7441L11.0645 9.9707L13.8477 7.17773Q14.082 6.94336 14.082 6.63086Q14.082 6.30859 13.8525 6.0791Q13.623 5.84961 13.3008 5.84961Q12.998 5.84961 12.7637 6.09375L9.95117 8.87695L7.16797 6.10352Q6.95312 5.86914 6.62109 5.86914Q6.29883 5.86914 6.06934 6.09375Q5.83984 6.31836 5.83984 6.64062Q5.83984 6.96289 6.07422 7.1875L8.84766 9.9707L6.07422 12.7539Q5.83984 12.9785 5.83984 13.3008Q5.83984 13.623 6.06934 13.8574Q6.29883 14.0918 6.62109 14.0918Z" fill="#000000"/>
 </g>
</svg>
