<?xml version="1.0" encoding="UTF-8"?>
<!--Generator: Apple Native CoreSVG 175.5-->
<!DOCTYPE svg
PUBLIC "-//W3C//DTD SVG 1.1//EN"
       "http://www.w3.org/Graphics/SVG/1.1/DTD/svg11.dtd">
<svg version="1.1" xmlns="http://www.w3.org/2000/svg" xmlns:xlink="http://www.w3.org/1999/xlink" width="21.1621" height="17.998">
 <g>
  <rect height="17.998" opacity="0" width="21.1621" x="0" y="0"/>
  <path d="M18.0957 17.998Q19.6289 17.998 20.3955 17.2412Q21.1621 16.4844 21.1621 14.9707L21.1621 3.04688Q21.1621 1.5332 20.3955 0.776367Q19.6289 0.0195312 18.0957 0.0195312L9.60938 0.0195312Q9.0332 0.0195312 8.52051 0.126953Q8.00781 0.234375 7.54395 0.488281Q7.08008 0.742188 6.67969 1.16211L0.927734 7.13867Q0.605469 7.46094 0.400391 7.77344Q0.195312 8.08594 0.0976562 8.38379Q0 8.68164 0 8.99414Q0 9.44336 0.224609 9.89746Q0.449219 10.3516 0.927734 10.8496L6.68945 16.7969Q7.08984 17.2168 7.55371 17.4805Q8.01758 17.7441 8.53027 17.8662Q9.04297 17.9883 9.61914 17.9883ZM18.0762 16.4258L9.58984 16.4258Q9.0332 16.4258 8.64258 16.2695Q8.25195 16.1133 7.87109 15.7227L2.14844 9.81445Q1.9043 9.56055 1.81152 9.37012Q1.71875 9.17969 1.71875 8.99414Q1.71875 8.63281 2.14844 8.16406L7.86133 2.23633Q8.24219 1.8457 8.6377 1.71875Q9.0332 1.5918 9.58008 1.5918L18.0762 1.5918Q18.8086 1.5918 19.1992 1.97754Q19.5898 2.36328 19.5898 3.125L19.5898 14.8926Q19.5898 15.6543 19.1992 16.04Q18.8086 16.4258 18.0762 16.4258Z" fill="#000000"/>
  <path d="M9.04297 13.1348Q9.38477 13.1348 9.60938 12.8906L12.373 10.1172L15.1562 12.8906Q15.3906 13.1348 15.7129 13.1348Q16.0352 13.1348 16.2646 12.9004Q16.4941 12.666 16.4941 12.3438Q16.4941 12.0215 16.2598 11.7871L13.4863 9.01367L16.2695 6.2207Q16.5039 5.98633 16.5039 5.67383Q16.5039 5.35156 16.2744 5.12207Q16.0449 4.89258 15.7227 4.89258Q15.4199 4.89258 15.1855 5.13672L12.373 7.91992L9.58984 5.14648Q9.375 4.91211 9.04297 4.91211Q8.7207 4.91211 8.49121 5.13672Q8.26172 5.36133 8.26172 5.68359Q8.26172 6.00586 8.49609 6.23047L11.2695 9.01367L8.49609 11.7969Q8.26172 12.0215 8.26172 12.3438Q8.26172 12.666 8.49121 12.9004Q8.7207 13.1348 9.04297 13.1348Z" fill="#000000"/>
 </g>
</svg>
