<?xml version="1.0" encoding="UTF-8"?>
<!--Generator: Apple Native CoreSVG 175.5-->
<!DOCTYPE svg
PUBLIC "-//W3C//DTD SVG 1.1//EN"
       "http://www.w3.org/Graphics/SVG/1.1/DTD/svg11.dtd">
<svg version="1.1" xmlns="http://www.w3.org/2000/svg" xmlns:xlink="http://www.w3.org/1999/xlink" width="19.3214" height="20.6379">
 <g>
  <rect height="20.6379" opacity="0" width="19.3214" x="0" y="0"/>
  <path d="M3.06641 19.2887L14.5312 19.2887Q15.8496 19.2887 16.5771 18.5318Q17.3047 17.775 17.3047 16.2613L17.3047 5.82187L15.7324 7.39414L15.7324 16.1832Q15.7324 16.9449 15.3711 17.3307Q15.0098 17.7164 14.5117 17.7164L3.0957 17.7164Q2.36328 17.7164 1.96777 17.3307Q1.57227 16.9449 1.57227 16.1832L1.57227 5.09922Q1.57227 4.3375 1.96777 3.94687Q2.36328 3.55625 3.0957 3.55625L11.9922 3.55625L13.5645 1.98398L3.06641 1.98398Q1.54297 1.98398 0.771484 2.74082Q0 3.49766 0 5.01133L0 16.2613Q0 17.775 0.771484 18.5318Q1.54297 19.2887 3.06641 19.2887Z" fill="#000000"/>
  <path d="M6.62109 12.9605L8.52539 12.1305L17.6465 3.01914L16.3086 1.70078L7.19727 10.8121L6.31836 12.648Q6.25977 12.775 6.37207 12.8971Q6.48438 13.0191 6.62109 12.9605ZM18.3691 2.30625L19.0723 1.58359Q19.3164 1.31992 19.3213 1.00254Q19.3262 0.685156 19.0723 0.441016L18.8477 0.206641Q18.623-0.0179688 18.3057 0.0015625Q17.9883 0.0210937 17.7441 0.255469L17.0312 0.958594Z" fill="#000000"/>
 </g>
</svg>
