<?xml version="1.0" encoding="UTF-8"?>
<!--Generator: Apple Native CoreSVG 175.5-->
<!DOCTYPE svg
PUBLIC "-//W3C//DTD SVG 1.1//EN"
       "http://www.w3.org/Graphics/SVG/1.1/DTD/svg11.dtd">
<svg version="1.1" xmlns="http://www.w3.org/2000/svg" xmlns:xlink="http://www.w3.org/1999/xlink" width="17.2559" height="23.3691">
 <g>
  <rect height="23.3691" opacity="0" width="17.2559" x="0" y="0"/>
  <path d="M0 12.3828Q0 14.1895 0.668945 15.7568Q1.33789 17.3242 2.51953 18.5107Q3.70117 19.6973 5.26855 20.3613Q6.83594 21.0254 8.63281 21.0254Q10.4199 21.0254 11.9873 20.3613Q13.5547 19.6973 14.7363 18.5107Q15.918 17.3242 16.5869 15.7568Q17.2559 14.1895 17.2559 12.3828Q17.2559 10.5957 16.5869 9.02832Q15.918 7.46094 14.7363 6.2793Q13.5547 5.09766 11.9873 4.42871Q10.4199 3.75977 8.63281 3.75977Q8.18359 3.75977 7.75391 3.80371Q7.32422 3.84766 6.94336 3.92578L9.54102 1.35742Q9.64844 1.24023 9.70215 1.09375Q9.75586 0.947266 9.75586 0.800781Q9.75586 0.458984 9.53613 0.229492Q9.31641 0 8.99414 0Q8.63281 0 8.41797 0.234375L4.39453 4.31641Q4.15039 4.57031 4.15039 4.90234Q4.15039 5.06836 4.20898 5.21484Q4.26758 5.36133 4.39453 5.48828L8.41797 9.53125Q8.63281 9.75586 8.98438 9.75586Q9.31641 9.75586 9.53613 9.53125Q9.75586 9.30664 9.75586 8.97461Q9.75586 8.81836 9.70215 8.67676Q9.64844 8.53516 9.53125 8.41797L6.62109 5.52734Q7.05078 5.42969 7.55859 5.38086Q8.06641 5.33203 8.63281 5.33203Q10.0977 5.33203 11.377 5.87891Q12.6562 6.42578 13.623 7.39258Q14.5898 8.35938 15.1367 9.63867Q15.6836 10.918 15.6836 12.3828Q15.6836 13.8574 15.1367 15.1416Q14.5898 16.4258 13.623 17.3975Q12.6562 18.3691 11.377 18.9111Q10.0977 19.4531 8.63281 19.4531Q7.1582 19.4531 5.87891 18.9111Q4.59961 18.3691 3.63281 17.3975Q2.66602 16.4258 2.11914 15.1416Q1.57227 13.8574 1.57227 12.3828Q1.57227 12.0312 1.36719 11.8018Q1.16211 11.5723 0.810547 11.5723Q0.458984 11.5723 0.229492 11.8018Q0 12.0312 0 12.3828Z" fill="#000000"/>
 </g>
</svg>
