<?xml version="1.0" encoding="UTF-8"?>
<!--Generator: Apple Native CoreSVG 175-->
<!DOCTYPE svg
PUBLIC "-//W3C//DTD SVG 1.1//EN"
       "http://www.w3.org/Graphics/SVG/1.1/DTD/svg11.dtd">
<svg version="1.1" xmlns="http://www.w3.org/2000/svg" xmlns:xlink="http://www.w3.org/1999/xlink" width="19.9219" height="19.9316">
 <g>
  <rect height="19.9316" opacity="0" width="19.9219" x="0" y="0"/>
  <path d="M9.96094 19.9219Q12.002 19.9219 13.8037 19.1406Q15.6055 18.3594 16.9824 16.9824Q18.3594 15.6055 19.1406 13.8037Q19.9219 12.002 19.9219 9.96094Q19.9219 7.91992 19.1406 6.11816Q18.3594 4.31641 16.9824 2.93945Q15.6055 1.5625 13.7988 0.78125Q11.9922 0 9.95117 0Q7.91016 0 6.1084 0.78125Q4.30664 1.5625 2.93457 2.93945Q1.5625 4.31641 0.78125 6.11816Q0 7.91992 0 9.96094Q0 12.002 0.78125 13.8037Q1.5625 15.6055 2.93945 16.9824Q4.31641 18.3594 6.11816 19.1406Q7.91992 19.9219 9.96094 19.9219ZM9.96094 18.2617Q8.23242 18.2617 6.72852 17.6172Q5.22461 16.9727 4.08691 15.835Q2.94922 14.6973 2.30957 13.1934Q1.66992 11.6895 1.66992 9.96094Q1.66992 8.23242 2.30957 6.72852Q2.94922 5.22461 4.08203 4.08203Q5.21484 2.93945 6.71875 2.2998Q8.22266 1.66016 9.95117 1.66016Q11.6797 1.66016 13.1836 2.2998Q14.6875 2.93945 15.8301 4.08203Q16.9727 5.22461 17.6172 6.72852Q18.2617 8.23242 18.2617 9.96094Q18.2617 11.6895 17.6221 13.1934Q16.9824 14.6973 15.8447 15.835Q14.707 16.9727 13.1982 17.6172Q11.6895 18.2617 9.96094 18.2617ZM8.25195 15.3223L12.2266 15.3223Q12.5293 15.3223 12.7344 15.127Q12.9395 14.9316 12.9395 14.6387Q12.9395 14.3457 12.7344 14.1504Q12.5293 13.9551 12.2266 13.9551L11.0156 13.9551L11.0156 8.98438Q11.0156 8.58398 10.8203 8.34473Q10.625 8.10547 10.2539 8.10547L8.41797 8.10547Q8.11523 8.10547 7.91016 8.30078Q7.70508 8.49609 7.70508 8.78906Q7.70508 9.08203 7.91016 9.27734Q8.11523 9.47266 8.41797 9.47266L9.46289 9.47266L9.46289 13.9551L8.25195 13.9551Q7.94922 13.9551 7.74414 14.1504Q7.53906 14.3457 7.53906 14.6387Q7.53906 14.9316 7.74414 15.127Q7.94922 15.3223 8.25195 15.3223ZM9.87305 6.47461Q10.4102 6.47461 10.7764 6.10352Q11.1426 5.73242 11.1426 5.20508Q11.1426 4.66797 10.7764 4.29688Q10.4102 3.92578 9.87305 3.92578Q9.3457 3.92578 8.97461 4.29688Q8.60352 4.66797 8.60352 5.20508Q8.60352 5.73242 8.97461 6.10352Q9.3457 6.47461 9.87305 6.47461Z" fill="#000000"/>
 </g>
</svg>
