<?xml version="1.0" encoding="UTF-8"?>
<!--Generator: Apple Native CoreSVG 175-->
<!DOCTYPE svg
PUBLIC "-//W3C//DTD SVG 1.1//EN"
       "http://www.w3.org/Graphics/SVG/1.1/DTD/svg11.dtd">
<svg version="1.1" xmlns="http://www.w3.org/2000/svg" xmlns:xlink="http://www.w3.org/1999/xlink" width="19.9512" height="18.4668">
 <g>
  <rect height="18.4668" opacity="0" width="19.9512" x="0" y="0"/>
  <path d="M4.17969 18.4375L15.7812 18.4375Q16.9336 18.4375 17.8809 17.9346Q18.8281 17.4316 19.3896 16.5283Q19.9512 15.625 19.9512 14.4238Q19.9512 13.2227 19.3896 12.3193Q18.8281 11.416 17.8809 10.9131Q16.9336 10.4102 15.7812 10.4102L4.17969 10.4102Q3.01758 10.4102 2.07031 10.9131Q1.12305 11.416 0.561523 12.3193Q0 13.2227 0 14.4238Q0 15.625 0.561523 16.5283Q1.12305 17.4316 2.07031 17.9346Q3.01758 18.4375 4.17969 18.4375ZM16.0254 16.9629Q15.3223 16.9531 14.751 16.6113Q14.1797 16.2695 13.8379 15.6934Q13.4961 15.1172 13.4961 14.4141Q13.4961 13.7207 13.8379 13.1445Q14.1797 12.5684 14.751 12.2266Q15.3223 11.8848 16.0254 11.8848Q16.7285 11.8848 17.3096 12.2266Q17.8906 12.5684 18.2324 13.1396Q18.5742 13.7109 18.5645 14.4043Q18.5645 15.1074 18.2227 15.6934Q17.8809 16.2793 17.3047 16.6211Q16.7285 16.9629 16.0254 16.9629ZM4.58008 8.90625L15.3809 8.90625Q16.6406 8.90625 17.6807 8.34961Q18.7207 7.79297 19.3359 6.78711Q19.9512 5.78125 19.9512 4.45312Q19.9512 3.125 19.3359 2.11914Q18.7207 1.11328 17.6807 0.556641Q16.6406 0 15.3809 0L4.58008 0Q3.32031 0 2.28027 0.556641Q1.24023 1.11328 0.620117 2.11914Q0 3.125 0 4.45312Q0 5.78125 0.620117 6.78711Q1.24023 7.79297 2.28027 8.34961Q3.32031 8.90625 4.58008 8.90625ZM4.58008 7.43164Q3.75977 7.43164 3.05176 7.05566Q2.34375 6.67969 1.90918 6.01074Q1.47461 5.3418 1.47461 4.45312Q1.47461 3.56445 1.90918 2.89551Q2.34375 2.22656 3.05176 1.85059Q3.75977 1.47461 4.58008 1.47461L15.3809 1.47461Q16.1914 1.47461 16.8994 1.85059Q17.6074 2.22656 18.042 2.89551Q18.4766 3.56445 18.4766 4.45312Q18.4766 5.3418 18.042 6.01074Q17.6074 6.67969 16.8994 7.05566Q16.1914 7.43164 15.3809 7.43164ZM4.58008 6.76758Q5.22461 6.77734 5.74707 6.45996Q6.26953 6.14258 6.58691 5.61035Q6.9043 5.07812 6.9043 4.43359Q6.91406 3.78906 6.60156 3.2666Q6.28906 2.74414 5.75684 2.43652Q5.22461 2.12891 4.58008 2.12891Q3.93555 2.12891 3.4082 2.44141Q2.88086 2.75391 2.57324 3.28125Q2.26562 3.80859 2.26562 4.44336Q2.26562 5.08789 2.57324 5.61523Q2.88086 6.14258 3.4082 6.45508Q3.93555 6.76758 4.58008 6.76758Z" fill="#000000"/>
 </g>
</svg>
