<?xml version="1.0" encoding="UTF-8"?>
<!--Generator: Apple Native CoreSVG 175-->
<!DOCTYPE svg
PUBLIC "-//W3C//DTD SVG 1.1//EN"
       "http://www.w3.org/Graphics/SVG/1.1/DTD/svg11.dtd">
<svg version="1.1" xmlns="http://www.w3.org/2000/svg" xmlns:xlink="http://www.w3.org/1999/xlink" width="23.0273" height="17.998">
 <g>
  <rect height="17.998" opacity="0" width="23.0273" x="0" y="0"/>
  <path d="M0 14.9707Q0 16.4844 0.766602 17.2412Q1.5332 17.998 3.06641 17.998L19.9609 17.998Q21.5039 17.998 22.2656 17.2412Q23.0273 16.4844 23.0273 14.9707L23.0273 3.04688Q23.0273 1.5332 22.2656 0.776367Q21.5039 0.0195312 19.9609 0.0195312L3.06641 0.0195312Q1.5332 0.0195312 0.766602 0.776367Q0 1.5332 0 3.04688ZM3.0957 3.34961Q2.73438 3.34961 2.48047 3.08594Q2.22656 2.82227 2.22656 2.48047Q2.22656 2.13867 2.48047 1.875Q2.73438 1.61133 3.0957 1.61133Q3.45703 1.61133 3.71582 1.875Q3.97461 2.13867 3.97461 2.48047Q3.97461 2.82227 3.71582 3.08594Q3.45703 3.34961 3.0957 3.34961ZM5.89844 3.34961Q5.53711 3.34961 5.2832 3.09082Q5.0293 2.83203 5.0293 2.48047Q5.0293 2.13867 5.2832 1.875Q5.53711 1.61133 5.89844 1.61133Q6.25977 1.61133 6.51855 1.875Q6.77734 2.13867 6.77734 2.48047Q6.77734 2.83203 6.51855 3.09082Q6.25977 3.34961 5.89844 3.34961ZM8.70117 3.34961Q8.33984 3.34961 8.08594 3.09082Q7.83203 2.83203 7.83203 2.48047Q7.83203 2.13867 8.08594 1.875Q8.33984 1.61133 8.70117 1.61133Q9.0625 1.61133 9.31641 1.875Q9.57031 2.13867 9.57031 2.48047Q9.57031 2.83203 9.31641 3.09082Q9.0625 3.34961 8.70117 3.34961ZM1.57227 14.8926L1.57227 4.94141L21.4551 4.94141L21.4551 14.8926Q21.4551 15.6543 21.0596 16.04Q20.6641 16.4258 19.9414 16.4258L3.08594 16.4258Q2.35352 16.4258 1.96289 16.04Q1.57227 15.6543 1.57227 14.8926Z" fill="#000000"/>
 </g>
</svg>
