<?xml version="1.0" encoding="UTF-8"?>
<!--Generator: Apple Native CoreSVG 175-->
<!DOCTYPE svg
PUBLIC "-//W3C//DTD SVG 1.1//EN"
       "http://www.w3.org/Graphics/SVG/1.1/DTD/svg11.dtd">
<svg version="1.1" xmlns="http://www.w3.org/2000/svg" xmlns:xlink="http://www.w3.org/1999/xlink" width="20.8984" height="20.8887">
 <g>
  <rect height="20.8887" opacity="0" width="20.8984" x="0" y="0"/>
  <path d="M9.46289 20.8789L11.4355 20.8789Q12.002 20.8789 12.4072 20.5615Q12.8125 20.2441 12.9395 19.6973L13.3594 17.8711L13.6719 17.7637L15.2637 18.7402Q15.7324 19.043 16.25 18.9746Q16.7676 18.9062 17.168 18.5059L18.5352 17.1484Q18.9355 16.748 19.0039 16.2305Q19.0723 15.7129 18.7695 15.2441L17.7734 13.6621L17.8906 13.3691L19.7168 12.9395Q20.2539 12.8125 20.5762 12.4023Q20.8984 11.9922 20.8984 11.4355L20.8984 9.50195Q20.8984 8.94531 20.5762 8.53516Q20.2539 8.125 19.7168 7.99805L17.9102 7.55859L17.7832 7.24609L18.7793 5.66406Q19.082 5.19531 19.0137 4.68262Q18.9453 4.16992 18.5449 3.75977L17.1777 2.39258Q16.7871 2.00195 16.2695 1.93359Q15.752 1.86523 15.2832 2.1582L13.6914 3.13477L13.3594 3.00781L12.9395 1.18164Q12.8125 0.644531 12.4072 0.322266Q12.002 0 11.4355 0L9.46289 0Q8.89648 0 8.49121 0.322266Q8.08594 0.644531 7.95898 1.18164L7.5293 3.00781L7.19727 3.13477L5.61523 2.1582Q5.13672 1.86523 4.62402 1.93359Q4.11133 2.00195 3.71094 2.39258L2.35352 3.75977Q1.94336 4.16992 1.87988 4.68262Q1.81641 5.19531 2.11914 5.66406L3.10547 7.24609L2.98828 7.55859L1.18164 7.99805Q0.634766 8.125 0.317383 8.53516Q0 8.94531 0 9.50195L0 11.4355Q0 11.9922 0.322266 12.4023Q0.644531 12.8125 1.18164 12.9395L3.00781 13.3691L3.11523 13.6621L2.12891 15.2441Q1.82617 15.7129 1.88965 16.2305Q1.95312 16.748 2.36328 17.1484L3.7207 18.5059Q4.12109 18.9062 4.63867 18.9746Q5.15625 19.043 5.63477 18.7402L7.2168 17.7637L7.5293 17.8711L7.95898 19.6973Q8.08594 20.2441 8.49121 20.5615Q8.89648 20.8789 9.46289 20.8789ZM9.61914 19.3555Q9.375 19.3555 9.33594 19.1309L8.75 16.709Q8.30078 16.6016 7.89551 16.4307Q7.49023 16.2598 7.17773 16.0645L5.04883 17.373Q4.87305 17.5 4.6875 17.3242L3.53516 16.1719Q3.37891 16.0254 3.49609 15.8105L4.80469 13.7012Q4.63867 13.3887 4.46289 12.9883Q4.28711 12.5879 4.16992 12.1387L1.74805 11.5625Q1.52344 11.5234 1.52344 11.2793L1.52344 9.64844Q1.52344 9.41406 1.74805 9.36523L4.16016 8.7793Q4.27734 8.30078 4.46777 7.89062Q4.6582 7.48047 4.78516 7.20703L3.48633 5.09766Q3.35938 4.88281 3.51562 4.7168L4.67773 3.58398Q4.85352 3.42773 5.04883 3.53516L7.1582 4.81445Q7.4707 4.63867 7.89551 4.46289Q8.32031 4.28711 8.75977 4.16992L9.33594 1.74805Q9.375 1.52344 9.61914 1.52344L11.2793 1.52344Q11.5234 1.52344 11.5527 1.74805L12.1484 4.18945Q12.6074 4.30664 13.0029 4.47754Q13.3984 4.64844 13.7207 4.82422L15.8398 3.53516Q16.0449 3.42773 16.2207 3.58398L17.373 4.7168Q17.5391 4.88281 17.4023 5.09766L16.1035 7.20703Q16.2402 7.48047 16.4258 7.89062Q16.6113 8.30078 16.7285 8.7793L19.1504 9.36523Q19.375 9.41406 19.375 9.64844L19.375 11.2793Q19.375 11.5234 19.1504 11.5625L16.7188 12.1387Q16.6016 12.5879 16.4307 12.9883Q16.2598 13.3887 16.084 13.7012L17.3926 15.8105Q17.5195 16.0254 17.3535 16.1719L16.2109 17.3242Q16.0254 17.5 15.8398 17.373L13.7109 16.0645Q13.3984 16.2598 12.998 16.4307Q12.5977 16.6016 12.1484 16.709L11.5527 19.1309Q11.5234 19.3555 11.2793 19.3555ZM10.4492 14.1699Q11.4746 14.1699 12.3193 13.667Q13.1641 13.1641 13.667 12.3145Q14.1699 11.4648 14.1699 10.4395Q14.1699 9.42383 13.667 8.5791Q13.1641 7.73438 12.3193 7.23145Q11.4746 6.72852 10.4492 6.72852Q9.42383 6.72852 8.5791 7.23145Q7.73438 7.73438 7.22656 8.5791Q6.71875 9.42383 6.71875 10.4395Q6.71875 11.4648 7.22656 12.3096Q7.73438 13.1543 8.5791 13.6621Q9.42383 14.1699 10.4492 14.1699ZM10.4492 12.6562Q9.84375 12.6562 9.34082 12.3584Q8.83789 12.0605 8.54004 11.5576Q8.24219 11.0547 8.24219 10.4395Q8.24219 9.83398 8.54004 9.33594Q8.83789 8.83789 9.34082 8.54004Q9.84375 8.24219 10.4492 8.24219Q11.0449 8.24219 11.543 8.54004Q12.041 8.83789 12.3389 9.33594Q12.6367 9.83398 12.6367 10.4395Q12.6367 11.0449 12.3389 11.5479Q12.041 12.0508 11.543 12.3535Q11.0449 12.6562 10.4492 12.6562Z" fill="#000000"/>
 </g>
</svg>
