<?xml version="1.0" encoding="UTF-8"?>
<!--Generator: Apple Native CoreSVG 175.5-->
<!DOCTYPE svg
PUBLIC "-//W3C//DTD SVG 1.1//EN"
       "http://www.w3.org/Graphics/SVG/1.1/DTD/svg11.dtd">
<svg version="1.1" xmlns="http://www.w3.org/2000/svg" xmlns:xlink="http://www.w3.org/1999/xlink" width="22.1777" height="17.998">
 <g>
  <rect height="17.998" opacity="0" width="22.1777" x="0" y="0"/>
  <path d="M3.06641 17.8711L19.4043 17.8711Q20.7129 17.8711 21.4453 17.1143Q22.1777 16.3574 22.1777 14.8438L22.1777 4.81445Q22.1777 3.31055 21.4062 2.54883Q20.6348 1.78711 19.1113 1.78711L9.73633 1.78711Q9.23828 1.78711 8.89648 1.65527Q8.55469 1.52344 8.18359 1.21094L7.58789 0.722656Q7.26562 0.449219 6.96777 0.292969Q6.66992 0.136719 6.31348 0.0683594Q5.95703 0 5.47852 0L2.69531 0Q1.40625 0 0.703125 0.732422Q0 1.46484 0 2.93945L0 14.8438Q0 16.3574 0.766602 17.1143Q1.5332 17.8711 3.06641 17.8711ZM3.08594 16.2988Q2.35352 16.2988 1.96289 15.9131Q1.57227 15.5273 1.57227 14.7656L1.57227 3.02734Q1.57227 2.30469 1.94336 1.93359Q2.31445 1.5625 3.01758 1.5625L5.07812 1.5625Q5.56641 1.5625 5.90332 1.69922Q6.24023 1.83594 6.61133 2.14844L7.20703 2.64648Q7.51953 2.91016 7.82227 3.06641Q8.125 3.22266 8.48633 3.29102Q8.84766 3.35938 9.32617 3.35938L19.082 3.35938Q19.8047 3.35938 20.2051 3.75Q20.6055 4.14062 20.6055 4.90234L20.6055 14.7754Q20.6055 15.5273 20.2051 15.9131Q19.8047 16.2988 19.082 16.2988ZM0.957031 6.93359L21.2109 6.93359L21.2109 5.45898L0.957031 5.45898Z" fill="#000000"/>
 </g>
</svg>
