<?xml version="1.0" encoding="UTF-8"?>
<!--Generator: Apple Native CoreSVG 175-->
<!DOCTYPE svg
PUBLIC "-//W3C//DTD SVG 1.1//EN"
       "http://www.w3.org/Graphics/SVG/1.1/DTD/svg11.dtd">
<svg version="1.1" xmlns="http://www.w3.org/2000/svg" xmlns:xlink="http://www.w3.org/1999/xlink" width="17.0605" height="18.4082">
 <g>
  <rect height="18.4082" opacity="0" width="17.0605" x="0" y="0"/>
  <path d="M2.39258 18.4082L14.668 18.4082Q17.0605 18.4082 17.0605 16.8457Q17.0605 15.8887 16.4746 14.8047Q15.8887 13.7207 14.7803 12.7588Q13.6719 11.7969 12.0947 11.1914Q10.5176 10.5859 8.53516 10.5859Q6.54297 10.5859 4.96582 11.1914Q3.38867 11.7969 2.28027 12.7588Q1.17188 13.7207 0.585938 14.8047Q0 15.8887 0 16.8457Q0 18.4082 2.39258 18.4082ZM1.93359 16.9336Q1.73828 16.9336 1.65527 16.875Q1.57227 16.8164 1.57227 16.6602Q1.57227 16.0645 2.02637 15.2783Q2.48047 14.4922 3.36914 13.7598Q4.25781 13.0273 5.55664 12.5439Q6.85547 12.0605 8.53516 12.0605Q10.2148 12.0605 11.5088 12.5439Q12.8027 13.0273 13.6914 13.7598Q14.5801 14.4922 15.0342 15.2783Q15.4883 16.0645 15.4883 16.6602Q15.4883 16.8164 15.4053 16.875Q15.3223 16.9336 15.1367 16.9336ZM8.53516 9.375Q9.69727 9.375 10.6543 8.75Q11.6113 8.125 12.1826 7.08496Q12.7539 6.04492 12.7539 4.78516Q12.7539 3.53516 12.1875 2.52441Q11.6211 1.51367 10.6641 0.917969Q9.70703 0.322266 8.53516 0.322266Q7.37305 0.322266 6.41602 0.927734Q5.45898 1.5332 4.8877 2.54883Q4.31641 3.56445 4.31641 4.80469Q4.31641 6.05469 4.8877 7.09473Q5.45898 8.13477 6.41602 8.75488Q7.37305 9.375 8.53516 9.375ZM8.53516 7.90039Q7.82227 7.90039 7.22168 7.48535Q6.62109 7.07031 6.25488 6.36719Q5.88867 5.66406 5.88867 4.80469Q5.88867 3.95508 6.25 3.27637Q6.61133 2.59766 7.21191 2.19727Q7.8125 1.79688 8.53516 1.79688Q9.26758 1.79688 9.86816 2.1875Q10.4688 2.57812 10.8252 3.25684Q11.1816 3.93555 11.1816 4.78516Q11.1816 5.64453 10.8203 6.35254Q10.459 7.06055 9.8584 7.48047Q9.25781 7.90039 8.53516 7.90039Z" fill="#000000"/>
 </g>
</svg>
